<mxfile host="65bd71144e">
    <diagram id="JZs9mqhictGEP04jluIx" name="Page-1">
        <mxGraphModel dx="906" dy="560" grid="1" gridSize="10" guides="1" tooltips="1" connect="1" arrows="1" fold="1" page="1" pageScale="1" pageWidth="850" pageHeight="1100" math="0" shadow="0">
            <root>
                <mxCell id="0"/>
                <mxCell id="1" parent="0"/>
                <mxCell id="42" value="" style="sketch=0;pointerEvents=1;shadow=0;dashed=0;html=1;strokeColor=none;fillColor=#505050;labelPosition=center;verticalLabelPosition=bottom;verticalAlign=top;outlineConnect=0;align=center;shape=mxgraph.office.concepts.contacts;" vertex="1" parent="1">
                    <mxGeometry x="490" y="100" width="53" height="39" as="geometry"/>
                </mxCell>
                <mxCell id="43" value="บริการงานบุคคล" style="swimlane;whiteSpace=wrap;html=1;" vertex="1" parent="1">
                    <mxGeometry x="70" y="740" width="200" height="190" as="geometry"/>
                </mxCell>
                <mxCell id="44" value="ข้อมูลบุคลากร" style="rounded=0;whiteSpace=wrap;html=1;" vertex="1" parent="1">
                    <mxGeometry x="425" y="740" width="120" height="60" as="geometry"/>
                </mxCell>
                <mxCell id="45" value="ข้อมูลประวัติ" style="rounded=0;whiteSpace=wrap;html=1;" vertex="1" parent="1">
                    <mxGeometry x="450" y="570" width="120" height="60" as="geometry"/>
                </mxCell>
                <mxCell id="46" value="ระบบลา" style="rounded=0;whiteSpace=wrap;html=1;" vertex="1" parent="1">
                    <mxGeometry x="420" y="870" width="120" height="70" as="geometry"/>
                </mxCell>
                <mxCell id="55" style="edgeStyle=none;html=1;entryX=0.5;entryY=0;entryDx=0;entryDy=0;" edge="1" parent="1" source="52" target="53">
                    <mxGeometry relative="1" as="geometry"/>
                </mxCell>
                <mxCell id="52" value="" style="aspect=fixed;html=1;points=[];align=center;image;fontSize=12;image=img/lib/azure2/azure_stack/User_Subscriptions.svg;" vertex="1" parent="1">
                    <mxGeometry x="116.97" y="400" width="72.12" height="70" as="geometry"/>
                </mxCell>
                <mxCell id="53" value="Authentication" style="rhombus;whiteSpace=wrap;html=1;" vertex="1" parent="1">
                    <mxGeometry x="96.06" y="560" width="113.94" height="100" as="geometry"/>
                </mxCell>
            </root>
        </mxGraphModel>
    </diagram>
</mxfile>